OpenSim_Sub03_CSBaseline_RCS.mot
version=1
nRows=45
nColumns=11
inDegrees=no
endheader
time	Top_Thigh	Med_Thigh	Bot_Thigh	Top_Shank	2nd_Top_Shank	2nd_Bot_Shank	Bot_Shank	BNOx	BNOy	BNOZ
23.22000000	9915.23796548	9977.84512860	10634.93549365	10816.72614277	12063.51016941	13068.40352232	14143.61984297	338.70358877	-76.56954368	-151.61879781
23.23000000	9912.50896706	9976.01786390	10632.92798051	10817.86630607	12062.71256179	13070.23407996	14143.00372358	309.73436165	-76.86327974	-165.11512538
23.24000000	9910.38360012	9973.66087033	10631.40036963	10819.11179246	12061.82292795	13073.46417492	14142.31832020	274.33295578	-77.12165450	-179.50465149
23.25000000	9908.64724991	9970.66333773	10630.18455650	10820.29868042	12060.96328667	13078.01455585	14141.65716559	234.44550474	-77.34332077	-193.24695755
23.26000000	9907.08530167	9966.91445593	10629.11243666	10821.26304846	12060.25565675	13083.80597140	14141.11379253	192.01814212	-77.52693138	-204.80162496
23.27000000	9905.48314066	9962.30341477	10628.01590560	10821.84097509	12059.82205697	13090.75917020	14140.78173378	148.99700150	-77.67113916	-212.62823514
23.28000000	9903.62615212	9956.71940408	10626.72685885	10821.86853879	12059.78450612	13098.79490091	14140.75452210	107.32821645	-77.77459692	-215.18636949
23.29000000	9901.29972130	9950.05161370	10625.07719191	10821.18181806	12060.26502300	13107.83391217	14141.12569026	68.95792056	-77.83595749	-210.93560941
23.30000000	9898.28923344	9942.18923346	10622.89880030	10819.61689141	12061.38562638	13117.79695262	14141.98877103	35.83224742	-77.85387370	-198.33553633
23.31000000	9894.38007380	9933.02145320	10620.02357954	10817.00983734	12063.26833505	13128.60477091	14143.43729716	9.89733059	-77.82699836	-175.84573165
23.32000000	9889.38016510	9922.44431987	10616.28428855	10813.19772184	12066.01060840	13140.14946415	14145.53526975	-7.10782289	-77.75445696	-142.19919367
23.33000000	9883.33009847	9910.42467067	10611.52259988	10808.02780566	12069.45636375	13152.02734199	14148.04181607	-15.58250093	-77.64025469	-98.95157160
23.34000000	9876.40772688	9896.97110524	10605.58544465	10801.35336384	12073.29994227	13163.66021537	14150.53620425	-17.18747072	-77.49127544	-49.32372721
23.35000000	9868.79267741	9882.09276299	10598.31982193	10793.02774917	12077.23375187	13174.46763985	14152.59537775	-13.59980384	-77.31444034	3.44195512
23.36000000	9860.66457711	9865.79878333	10589.57273079	10782.90431446	12080.95020046	13183.86917101	14153.79628003	-6.49657190	-77.11667051	56.10309102
23.37000000	9852.20305307	9848.09830568	10579.19117031	10770.83641247	12084.14169595	13191.28436441	14153.71585457	2.44515350	-76.90488706	105.41729609
23.38000000	9843.58773233	9829.00046945	10567.02213956	10756.67739602	12086.50064624	13196.13277561	14151.93104481	11.54830076	-76.68601111	148.14218597
23.39000000	9834.98134558	9808.53673730	10552.95031125	10740.32517056	12087.76618669	13197.89228820	14148.07987065	19.24517087	-76.46562824	181.28662535
23.40000000	9826.37219164	9786.96902853	10537.24928607	10722.13758630	12088.15984865	13196.64294179	14142.43088128	25.09718525	-76.23553634	204.45327782
23.41000000	9817.64566392	9764.69521948	10520.42211139	10702.74383614	12088.18775126	13192.82001572	14135.62460440	29.33188578	-75.97939929	218.77500916
23.42000000	9808.68582577	9742.11494370	10502.97480013	10682.77662007	12088.35969191	13186.86338075	14128.30637547	32.18542387	-75.68077585	225.40446274
23.43000000	9799.37674054	9719.62783476	10485.41336521	10662.86863805	12089.18546800	13179.21290766	14121.12152995	33.89395091	-75.32322479	225.49428195
23.44000000	9789.60247161	9697.63352623	10468.24381956	10643.65259005	12091.17487691	13170.30846720	14114.71540328	34.69361829	-74.89030486	220.19711018
23.45000000	9779.24708233	9676.53165167	10451.97217611	10625.76117606	12094.83771602	13160.58993015	14109.73333092	34.82057741	-74.36557483	210.66559081
23.46000000	9768.19463605	9656.72184464	10437.10444777	10609.82709603	12100.68378274	13150.49716726	14106.82064833	34.51097967	-73.73259345	198.05236723
23.47000000	9756.32919615	9638.60373871	10424.14664746	10596.48304994	12109.22287445	13140.47004931	14106.62269096	34.00097647	-72.97491950	183.51008282
23.48000000	9743.53482597	9622.57696743	10413.60478812	10586.36173777	12120.96478854	13130.94844706	14109.78479427	33.52671919	-72.07611172	168.19138097
23.49000000	9729.69558888	9609.04116438	10405.98488266	10580.09585948	12136.41932239	13122.37223126	14116.95229371	33.32435924	-71.01972888	153.24890506
23.50000000	9714.69554824	9598.39596311	10401.79294400	10578.31811506	12156.09627341	13115.18127270	14128.77052474	33.63004800	-69.78932975	139.83529849
23.51000000	9698.41876741	9591.04099719	10401.53498508	10581.66120446	12180.50543897	13109.81544213	14145.88482282	34.67993689	-68.36847307	129.10320463
23.52000000	9680.92219861	9587.33142706	10405.59434436	10590.60791379	12209.87325842	13106.67045111	14168.77183937	36.66344144	-66.75315658	122.02780047
23.53000000	9663.54055078	9587.29372908	10413.44771943	10604.53307186	12242.33197802	13105.81564714	14196.66154549	39.42457008	-65.03130972	118.27267543
23.54000000	9648.18122720	9590.80706237	10424.16544878	10622.31491776	12275.07522047	13107.17410033	14228.22514644	42.65251876	-63.33206602	116.91356145
23.55000000	9636.75433257	9597.74989120	10436.81595408	10642.82934817	12305.29218104	13110.66819083	14262.13121181	46.03575316	-61.78475334	117.02341758
23.56000000	9631.16997155	9608.00067982	10450.46765703	10664.95225977	12330.17205496	13116.22029878	14297.04831116	49.26273897	-60.51869957	117.67520289
23.57000000	9633.21416253	9621.41713766	10464.21956403	10687.58370195	12347.05106760	13123.72469577	14331.67153943	52.02750681	-59.65661524	117.98840809
23.58000000	9642.81622528	9637.54642050	10477.62831982	10709.98512006	12355.46545059	13132.65506605	14365.09288938	54.10735523	-59.22219587	117.77877589
23.59000000	9658.47618932	9655.69661930	10490.60285997	10731.69616282	12356.64500471	13142.16132494	14396.70988653	55.34368257	-59.16291501	117.39802507
23.60000000	9678.65731783	9675.16967544	10503.06118222	10752.26363527	12351.86309523	13151.38505928	14425.92791574	55.57953603	-59.42428553	117.21166162
23.61000000	9701.82287401	9695.26753030	10514.92128429	10771.23434246	12342.39308743	13159.46785593	14452.15236188	54.65796283	-59.95182029	117.58519149
23.62000000	9726.43612107	9715.29212527	10526.10116392	10788.15508946	12329.50834655	13165.55130173	14474.78860983	52.42201017	-60.69103215	118.88412067
23.63000000	9750.96032219	9734.54540173	10536.51881884	10802.57268131	12314.48223789	13168.77698353	14493.24204446	48.71472528	-61.58743398	121.47395513
23.64000000	9773.85874058	9752.32930107	10546.09224678	10814.03392308	12298.58812670	13168.28648818	14506.91805063	43.37915535	-62.58653863	125.72020083
23.65000000	9793.81959380	9768.05023333	10554.74983970	10822.19677304	12282.96276870	13163.45837380	14515.39050991	36.38693645	-63.63997470	131.83958159
23.66000000	9810.74782796	9781.67965657	10562.47620974	10827.32039266	12268.00402873	13154.95292372	14519.14466521	28.40521328	-64.73244933	139.24409135
